<svg width="795" height="795" viewBox="0 0 795 795" fill="none" xmlns="http://www.w3.org/2000/svg">
<g clip-path="url(#clip0_65_3)">
<rect width="795" height="795" rx="100" fill="#6C46BD"/>
<g filter="url(#filter0_i_65_3)">
<g filter="url(#filter1_d_65_3)">
<path d="M445.164 216.885L454.277 212.766L453.52 211.092L452.218 209.797L445.164 216.885ZM502 287.782L511.824 289.649L502 287.782ZM403.085 315.251C398.396 312.333 392.229 313.768 389.311 318.457C386.393 323.146 387.828 329.313 392.517 332.231L403.085 315.251ZM349.85 224.47C356.375 218.863 371.837 211.531 389.625 209.521C407.15 207.541 424.984 210.91 438.11 223.973L452.218 209.797C433.365 191.035 408.612 187.249 387.38 189.647C366.412 192.016 346.947 200.596 336.816 209.3L349.85 224.47ZM436.052 221.003C445.487 241.88 462.01 256.913 474.409 267.924C480.925 273.711 485.883 278.021 489.205 281.856C492.814 286.021 491.995 286.864 492.176 285.915L511.824 289.649C513.505 280.809 508.446 273.521 504.321 268.76C499.911 263.669 493.643 258.257 487.689 252.97C475.148 241.832 461.753 229.308 454.277 212.766L436.052 221.003ZM492.176 285.915C491.887 287.437 489.697 292.178 484.246 298.512C479.117 304.471 471.997 310.78 463.539 315.678C446.844 325.346 425.638 329.286 403.085 315.251L392.517 332.231C422.853 351.11 452.168 345.374 473.562 332.986C484.147 326.855 492.964 319.041 499.404 311.558C505.522 304.45 510.535 296.43 511.824 289.649L492.176 285.915Z" fill="white"/>
</g>
<g filter="url(#filter2_d_65_3)">
<path d="M358.605 233.85L364.453 355.76C365.391 375.306 349.796 391.666 330.228 391.666C310.147 391.666 294.371 374.478 296.088 354.471L306.527 232.869C307.686 219.368 318.983 209 332.533 209C346.462 209 357.937 219.937 358.605 233.85Z" stroke="white" stroke-width="20" shape-rendering="crispEdges"/>
</g>
<ellipse cx="418.167" cy="252.153" rx="10.8335" ry="17.153" fill="white"/>
<ellipse cx="486" cy="285" rx="13" ry="14" fill="white"/>
</g>
<path d="M303.284 541.723C296.436 541.723 290.42 540.283 285.236 537.403C280.052 534.459 276.02 530.363 273.14 525.115C270.324 519.867 268.916 513.755 268.916 506.779C268.916 501.531 269.716 496.763 271.316 492.475C272.98 488.187 275.316 484.507 278.324 481.435C281.396 478.363 285.044 476.027 289.268 474.427C293.492 472.763 298.164 471.931 303.284 471.931C310.132 471.931 316.116 473.371 321.236 476.251C326.42 479.131 330.452 483.195 333.332 488.443C336.212 493.627 337.652 499.739 337.652 506.779C337.652 512.027 336.82 516.795 335.156 521.083C333.556 525.371 331.22 529.083 328.148 532.219C325.14 535.291 321.524 537.659 317.3 539.323C313.076 540.923 308.404 541.723 303.284 541.723ZM303.284 526.939C306.676 526.939 309.556 526.139 311.924 524.539C314.292 522.939 316.116 520.635 317.396 517.627C318.676 514.619 319.316 511.003 319.316 506.779C319.316 500.443 317.908 495.515 315.092 491.995C312.276 488.475 308.34 486.715 303.284 486.715C299.956 486.715 297.076 487.515 294.644 489.115C292.276 490.651 290.452 492.923 289.172 495.931C287.892 498.875 287.252 502.491 287.252 506.779C287.252 513.115 288.66 518.075 291.476 521.659C294.292 525.179 298.228 526.939 303.284 526.939ZM366.994 541.531C364.178 541.531 362.002 540.763 360.466 539.227C358.93 537.627 358.162 535.419 358.162 532.603V481.915C358.162 479.035 358.93 476.827 360.466 475.291C362.066 473.755 364.274 472.987 367.09 472.987H390.706C398.386 472.987 404.306 474.971 408.466 478.939C412.69 482.843 414.802 488.251 414.802 495.163C414.802 502.075 412.69 507.515 408.466 511.483C404.306 515.387 398.386 517.339 390.706 517.339H375.826V532.603C375.826 535.419 375.09 537.627 373.618 539.227C372.146 540.763 369.938 541.531 366.994 541.531ZM375.826 503.803H387.634C390.962 503.803 393.522 503.099 395.314 501.691C397.106 500.219 398.002 498.043 398.002 495.163C398.002 492.219 397.106 490.043 395.314 488.635C393.522 487.227 390.962 486.523 387.634 486.523H375.826V503.803ZM457.693 541.723C451.933 541.723 446.941 540.731 442.717 538.747C438.557 536.699 435.357 533.819 433.117 530.107C430.877 526.395 429.757 522.011 429.757 516.955C429.757 512.091 430.813 507.835 432.925 504.187C435.101 500.475 438.045 497.595 441.757 495.547C445.533 493.435 449.821 492.379 454.621 492.379C458.141 492.379 461.341 492.955 464.221 494.107C467.101 495.195 469.565 496.827 471.613 499.003C473.661 501.115 475.197 503.675 476.221 506.683C477.309 509.691 477.853 513.051 477.853 516.763C477.853 518.043 477.501 519.003 476.797 519.643C476.093 520.219 474.973 520.507 473.437 520.507H444.061V512.443H465.373L463.837 513.691C463.837 511.323 463.517 509.403 462.877 507.931C462.237 506.459 461.277 505.339 459.997 504.571C458.781 503.803 457.245 503.419 455.389 503.419C453.405 503.419 451.677 503.899 450.205 504.859C448.797 505.755 447.709 507.099 446.941 508.891C446.173 510.683 445.789 512.923 445.789 515.611V516.475C445.789 521.019 446.781 524.283 448.765 526.267C450.813 528.187 453.949 529.147 458.173 529.147C459.581 529.147 461.181 528.987 462.973 528.667C464.829 528.283 466.589 527.771 468.253 527.131C469.917 526.491 471.357 526.395 472.573 526.843C473.789 527.227 474.717 527.931 475.357 528.955C476.061 529.915 476.445 531.035 476.509 532.315C476.573 533.531 476.285 534.747 475.645 535.963C475.005 537.115 473.949 538.011 472.477 538.651C470.237 539.675 467.837 540.443 465.277 540.955C462.781 541.467 460.253 541.723 457.693 541.723ZM519.688 541.723C514.888 541.723 510.92 540.987 507.784 539.515C504.712 538.043 502.408 535.835 500.872 532.891C499.336 529.883 498.568 526.139 498.568 521.659V506.011H495.304C493.256 506.011 491.656 505.467 490.504 504.379C489.416 503.291 488.872 501.723 488.872 499.675C488.872 497.627 489.416 496.091 490.504 495.067C491.656 493.979 493.256 493.435 495.304 493.435H498.568V487.483C498.568 484.667 499.304 482.523 500.776 481.051C502.248 479.579 504.36 478.843 507.112 478.843C509.864 478.843 511.976 479.579 513.448 481.051C514.92 482.523 515.656 484.667 515.656 487.483V493.435H523.528C525.64 493.435 527.24 493.979 528.328 495.067C529.48 496.091 530.056 497.627 530.056 499.675C530.056 501.723 529.48 503.291 528.328 504.379C527.24 505.467 525.64 506.011 523.528 506.011H515.656V521.083C515.656 523.451 516.2 525.211 517.288 526.363C518.44 527.451 520.232 527.995 522.664 527.995C523.56 527.995 524.424 527.899 525.256 527.707C526.088 527.515 526.856 527.419 527.56 527.419C528.584 527.355 529.416 527.675 530.056 528.379C530.696 529.019 531.016 530.523 531.016 532.891C531.016 534.811 530.728 536.443 530.152 537.787C529.576 539.067 528.552 539.995 527.08 540.571C526.184 540.891 524.968 541.147 523.432 541.339C521.896 541.595 520.648 541.723 519.688 541.723Z" fill="white"/>
<path d="M221.312 598.883C219.712 598.883 218.312 598.531 217.112 597.827C215.928 597.107 215.008 596.099 214.352 594.803C213.712 593.491 213.392 591.955 213.392 590.195C213.392 588.867 213.576 587.675 213.944 586.619C214.312 585.547 214.84 584.635 215.528 583.883C216.216 583.115 217.048 582.531 218.024 582.131C219 581.731 220.096 581.531 221.312 581.531C222.928 581.531 224.328 581.883 225.512 582.587C226.696 583.291 227.608 584.291 228.248 585.587C228.904 586.883 229.232 588.411 229.232 590.171C229.232 591.499 229.048 592.699 228.68 593.771C228.312 594.843 227.776 595.763 227.072 596.531C226.384 597.299 225.552 597.883 224.576 598.283C223.6 598.683 222.512 598.883 221.312 598.883ZM221.312 596.723C222.432 596.723 223.384 596.467 224.168 595.955C224.968 595.443 225.576 594.699 225.992 593.723C226.424 592.747 226.64 591.571 226.64 590.195C226.64 588.131 226.176 586.531 225.248 585.395C224.32 584.259 223.008 583.691 221.312 583.691C220.192 583.691 219.232 583.947 218.432 584.459C217.648 584.955 217.04 585.691 216.608 586.667C216.192 587.643 215.984 588.819 215.984 590.195C215.984 592.243 216.448 593.843 217.376 594.995C218.32 596.147 219.632 596.723 221.312 596.723ZM246.617 598.883C245.481 598.883 244.481 598.739 243.617 598.451C242.753 598.147 242.025 597.699 241.433 597.107C240.857 596.515 240.417 595.779 240.113 594.899C239.809 594.019 239.657 593.003 239.657 591.851V582.827C239.657 582.411 239.761 582.099 239.969 581.891C240.193 581.683 240.505 581.579 240.905 581.579C241.305 581.579 241.609 581.683 241.817 581.891C242.041 582.099 242.153 582.411 242.153 582.827V591.803C242.153 593.451 242.529 594.683 243.281 595.499C244.049 596.315 245.161 596.723 246.617 596.723C248.089 596.723 249.201 596.315 249.953 595.499C250.705 594.683 251.081 593.451 251.081 591.803V582.827C251.081 582.411 251.185 582.099 251.393 581.891C251.617 581.683 251.921 581.579 252.305 581.579C252.705 581.579 253.009 581.683 253.217 581.891C253.425 582.099 253.529 582.411 253.529 582.827V591.851C253.529 593.387 253.265 594.683 252.737 595.739C252.225 596.779 251.457 597.563 250.433 598.091C249.409 598.619 248.137 598.883 246.617 598.883ZM265.827 598.835C265.427 598.835 265.115 598.723 264.891 598.499C264.683 598.275 264.579 597.963 264.579 597.563V583.019C264.579 582.603 264.691 582.291 264.915 582.083C265.139 581.859 265.451 581.747 265.851 581.747H271.587C273.411 581.747 274.819 582.179 275.811 583.043C276.803 583.907 277.299 585.131 277.299 586.715C277.299 587.739 277.075 588.619 276.627 589.355C276.179 590.091 275.523 590.651 274.659 591.035C273.811 591.419 272.787 591.611 271.587 591.611L271.803 591.275H272.427C273.067 591.275 273.619 591.435 274.083 591.755C274.563 592.075 274.995 592.587 275.379 593.291L277.443 597.131C277.603 597.419 277.675 597.699 277.659 597.971C277.659 598.227 277.563 598.435 277.371 598.595C277.195 598.755 276.939 598.835 276.603 598.835C276.251 598.835 275.963 598.763 275.739 598.619C275.531 598.459 275.339 598.227 275.163 597.923L272.643 593.267C272.307 592.643 271.923 592.227 271.491 592.019C271.059 591.795 270.491 591.683 269.787 591.683H267.075V597.563C267.075 597.963 266.971 598.275 266.763 598.499C266.555 598.723 266.243 598.835 265.827 598.835ZM267.075 589.811H271.179C272.395 589.811 273.315 589.555 273.939 589.043C274.563 588.531 274.875 587.771 274.875 586.763C274.875 585.771 274.563 585.019 273.939 584.507C273.315 583.995 272.395 583.739 271.179 583.739H267.075V589.811ZM302.797 598.835C302.397 598.835 302.085 598.723 301.861 598.499C301.653 598.275 301.549 597.963 301.549 597.563V583.019C301.549 582.603 301.661 582.291 301.885 582.083C302.109 581.859 302.421 581.747 302.821 581.747H308.557C310.381 581.747 311.789 582.203 312.781 583.115C313.773 584.011 314.269 585.275 314.269 586.907C314.269 588.555 313.773 589.835 312.781 590.747C311.789 591.643 310.381 592.091 308.557 592.091H304.045V597.563C304.045 597.963 303.941 598.275 303.733 598.499C303.525 598.723 303.213 598.835 302.797 598.835ZM304.045 590.099H308.197C309.397 590.099 310.301 589.835 310.909 589.307C311.533 588.763 311.845 587.963 311.845 586.907C311.845 585.867 311.533 585.083 310.909 584.555C310.301 584.011 309.397 583.739 308.197 583.739H304.045V590.099ZM325.492 598.667C325.06 598.667 324.724 598.555 324.484 598.331C324.26 598.091 324.148 597.755 324.148 597.323V583.091C324.148 582.659 324.26 582.331 324.484 582.107C324.724 581.867 325.06 581.747 325.492 581.747H334.252C334.588 581.747 334.844 581.835 335.02 582.011C335.196 582.171 335.284 582.411 335.284 582.731C335.284 583.067 335.196 583.323 335.02 583.499C334.844 583.675 334.588 583.763 334.252 583.763H326.548V589.067H333.724C334.076 589.067 334.332 589.155 334.492 589.331C334.668 589.507 334.756 589.755 334.756 590.075C334.756 590.411 334.668 590.667 334.492 590.843C334.332 591.003 334.076 591.083 333.724 591.083H326.548V596.651H334.252C334.588 596.651 334.844 596.739 335.02 596.915C335.196 597.091 335.284 597.339 335.284 597.659C335.284 597.995 335.196 598.251 335.02 598.427C334.844 598.587 334.588 598.667 334.252 598.667H325.492ZM350.646 598.835C350.246 598.835 349.934 598.723 349.71 598.499C349.502 598.275 349.398 597.963 349.398 597.563V583.835H344.31C343.974 583.835 343.71 583.747 343.518 583.571C343.326 583.379 343.23 583.115 343.23 582.779C343.23 582.443 343.326 582.187 343.518 582.011C343.71 581.835 343.974 581.747 344.31 581.747H356.958C357.31 581.747 357.582 581.835 357.774 582.011C357.966 582.187 358.062 582.443 358.062 582.779C358.062 583.115 357.966 583.379 357.774 583.571C357.582 583.747 357.31 583.835 356.958 583.835H351.87V597.563C351.87 597.963 351.766 598.275 351.558 598.499C351.366 598.723 351.062 598.835 350.646 598.835ZM388.014 598.883C386.414 598.883 385.014 598.531 383.814 597.827C382.63 597.107 381.71 596.099 381.054 594.803C380.414 593.491 380.094 591.955 380.094 590.195C380.094 588.867 380.278 587.675 380.646 586.619C381.014 585.547 381.542 584.635 382.23 583.883C382.918 583.115 383.75 582.531 384.726 582.131C385.702 581.731 386.798 581.531 388.014 581.531C389.63 581.531 391.03 581.883 392.214 582.587C393.398 583.291 394.31 584.291 394.95 585.587C395.606 586.883 395.934 588.411 395.934 590.171C395.934 591.499 395.75 592.699 395.382 593.771C395.014 594.843 394.478 595.763 393.774 596.531C393.086 597.299 392.254 597.883 391.278 598.283C390.302 598.683 389.214 598.883 388.014 598.883ZM388.014 596.723C389.134 596.723 390.086 596.467 390.87 595.955C391.67 595.443 392.278 594.699 392.694 593.723C393.126 592.747 393.342 591.571 393.342 590.195C393.342 588.131 392.878 586.531 391.95 585.395C391.022 584.259 389.71 583.691 388.014 583.691C386.894 583.691 385.934 583.947 385.134 584.459C384.35 584.955 383.742 585.691 383.31 586.667C382.894 587.643 382.686 588.819 382.686 590.195C382.686 592.243 383.15 593.843 384.078 594.995C385.022 596.147 386.334 596.723 388.014 596.723ZM413.319 598.883C412.183 598.883 411.183 598.739 410.319 598.451C409.455 598.147 408.727 597.699 408.135 597.107C407.559 596.515 407.119 595.779 406.815 594.899C406.511 594.019 406.359 593.003 406.359 591.851V582.827C406.359 582.411 406.463 582.099 406.671 581.891C406.895 581.683 407.207 581.579 407.607 581.579C408.007 581.579 408.311 581.683 408.519 581.891C408.743 582.099 408.855 582.411 408.855 582.827V591.803C408.855 593.451 409.231 594.683 409.983 595.499C410.751 596.315 411.863 596.723 413.319 596.723C414.791 596.723 415.903 596.315 416.655 595.499C417.407 594.683 417.783 593.451 417.783 591.803V582.827C417.783 582.411 417.887 582.099 418.095 581.891C418.319 581.683 418.623 581.579 419.007 581.579C419.407 581.579 419.711 581.683 419.919 581.891C420.127 582.099 420.231 582.411 420.231 582.827V591.851C420.231 593.387 419.967 594.683 419.439 595.739C418.927 596.779 418.159 597.563 417.135 598.091C416.111 598.619 414.839 598.883 413.319 598.883ZM432.529 598.835C432.129 598.835 431.817 598.723 431.593 598.499C431.385 598.275 431.281 597.963 431.281 597.563V583.019C431.281 582.603 431.393 582.291 431.617 582.083C431.841 581.859 432.153 581.747 432.553 581.747H438.289C440.113 581.747 441.521 582.179 442.513 583.043C443.505 583.907 444.001 585.131 444.001 586.715C444.001 587.739 443.777 588.619 443.329 589.355C442.881 590.091 442.225 590.651 441.361 591.035C440.513 591.419 439.489 591.611 438.289 591.611L438.505 591.275H439.129C439.769 591.275 440.321 591.435 440.785 591.755C441.265 592.075 441.697 592.587 442.081 593.291L444.145 597.131C444.305 597.419 444.377 597.699 444.361 597.971C444.361 598.227 444.265 598.435 444.073 598.595C443.897 598.755 443.641 598.835 443.305 598.835C442.953 598.835 442.665 598.763 442.441 598.619C442.233 598.459 442.041 598.227 441.865 597.923L439.345 593.267C439.009 592.643 438.625 592.227 438.193 592.019C437.761 591.795 437.193 591.683 436.489 591.683H433.777V597.563C433.777 597.963 433.673 598.275 433.465 598.499C433.257 598.723 432.945 598.835 432.529 598.835ZM433.777 589.811H437.881C439.097 589.811 440.017 589.555 440.641 589.043C441.265 588.531 441.577 587.771 441.577 586.763C441.577 585.771 441.265 585.019 440.641 584.507C440.017 583.995 439.097 583.739 437.881 583.739H433.777V589.811ZM469.571 598.835C469.155 598.835 468.827 598.723 468.587 598.499C468.363 598.275 468.251 597.947 468.251 597.515V583.091C468.251 582.659 468.363 582.331 468.587 582.107C468.827 581.867 469.163 581.747 469.595 581.747H478.139C478.491 581.747 478.747 581.835 478.907 582.011C479.083 582.171 479.171 582.411 479.171 582.731C479.171 583.067 479.083 583.323 478.907 583.499C478.747 583.675 478.491 583.763 478.139 583.763H470.747V589.163H477.659C477.979 589.163 478.227 589.251 478.403 589.427C478.595 589.587 478.691 589.827 478.691 590.147C478.691 590.483 478.595 590.739 478.403 590.915C478.227 591.091 477.979 591.179 477.659 591.179H470.747V597.515C470.747 598.395 470.355 598.835 469.571 598.835ZM487.308 598.835C486.988 598.835 486.732 598.763 486.54 598.619C486.348 598.475 486.236 598.283 486.204 598.043C486.172 597.803 486.22 597.531 486.348 597.227L492.852 582.635C493.012 582.251 493.212 581.979 493.452 581.819C493.708 581.659 493.988 581.579 494.292 581.579C494.58 581.579 494.844 581.659 495.084 581.819C495.34 581.979 495.548 582.251 495.708 582.635L502.212 597.227C502.356 597.531 502.412 597.811 502.38 598.067C502.348 598.307 502.244 598.499 502.068 598.643C501.892 598.771 501.644 598.835 501.324 598.835C500.972 598.835 500.692 598.747 500.484 598.571C500.276 598.395 500.092 598.123 499.932 597.755L498.252 593.867L499.38 594.539H489.156L490.26 593.867L488.604 597.755C488.444 598.139 488.268 598.419 488.076 598.595C487.884 598.755 487.628 598.835 487.308 598.835ZM494.244 584.507L490.62 593.099L490.02 592.523H498.492L497.94 593.099L494.292 584.507H494.244ZM513.476 598.835C513.108 598.835 512.82 598.731 512.612 598.523C512.42 598.315 512.324 598.027 512.324 597.659V582.755C512.324 582.371 512.428 582.083 512.636 581.891C512.844 581.683 513.124 581.579 513.476 581.579C513.812 581.579 514.068 581.643 514.244 581.771C514.436 581.883 514.612 582.091 514.772 582.395L521.06 594.131H520.316L526.58 582.395C526.74 582.091 526.908 581.883 527.084 581.771C527.26 581.643 527.516 581.579 527.852 581.579C528.204 581.579 528.476 581.683 528.668 581.891C528.86 582.083 528.956 582.371 528.956 582.755V597.659C528.956 598.027 528.86 598.315 528.668 598.523C528.492 598.731 528.22 598.835 527.852 598.835C527.484 598.835 527.204 598.731 527.012 598.523C526.82 598.315 526.724 598.027 526.724 597.659V585.275H527.252L521.684 595.571C521.556 595.811 521.42 595.987 521.276 596.099C521.132 596.211 520.932 596.267 520.676 596.267C520.42 596.267 520.212 596.211 520.052 596.099C519.892 595.971 519.748 595.795 519.62 595.571L514.004 585.251H514.58V597.659C514.58 598.027 514.484 598.315 514.292 598.523C514.116 598.731 513.844 598.835 513.476 598.835ZM541.396 598.835C540.996 598.835 540.684 598.723 540.46 598.499C540.252 598.275 540.148 597.963 540.148 597.563V582.851C540.148 582.435 540.252 582.123 540.46 581.915C540.684 581.691 540.996 581.579 541.396 581.579C541.796 581.579 542.1 581.691 542.308 581.915C542.532 582.123 542.644 582.435 542.644 582.851V597.563C542.644 597.963 542.54 598.275 542.332 598.499C542.124 598.723 541.812 598.835 541.396 598.835ZM555.042 598.667C554.642 598.667 554.33 598.555 554.106 598.331C553.882 598.107 553.77 597.795 553.77 597.395V582.923C553.77 582.507 553.874 582.195 554.082 581.987C554.306 581.763 554.618 581.651 555.018 581.651C555.418 581.651 555.722 581.763 555.93 581.987C556.154 582.195 556.266 582.507 556.266 582.923V596.531H563.706C564.058 596.531 564.33 596.627 564.522 596.819C564.714 596.995 564.81 597.251 564.81 597.587C564.81 597.923 564.714 598.187 564.522 598.379C564.33 598.571 564.058 598.667 563.706 598.667H555.042ZM576.703 598.835C576.303 598.835 575.991 598.723 575.767 598.499C575.559 598.275 575.455 597.955 575.455 597.539V589.931L576.007 591.515L570.079 583.283C569.903 583.043 569.823 582.795 569.839 582.539C569.855 582.267 569.959 582.043 570.151 581.867C570.359 581.675 570.631 581.579 570.967 581.579C571.223 581.579 571.455 581.643 571.663 581.771C571.887 581.899 572.095 582.099 572.287 582.371L577.039 588.971H576.463L581.215 582.371C581.423 582.083 581.623 581.883 581.815 581.771C582.007 581.643 582.247 581.579 582.535 581.579C582.871 581.579 583.127 581.667 583.303 581.843C583.495 582.003 583.591 582.219 583.591 582.491C583.607 582.747 583.511 583.019 583.303 583.307L577.423 591.515L577.927 589.931V597.539C577.927 598.403 577.519 598.835 576.703 598.835Z" fill="white"/>
<path d="M398.231 711.841C-43.4434 631.887 -297.555 1176.75 -409.916 1384.61L1450.26 1063.35C1440.97 675.973 1330.12 -77.0674 961.083 9.76661C499.784 118.309 1065.96 832.717 398.231 711.841Z" fill="white" fill-opacity="0.07"/>
</g>
<defs>
<filter id="filter0_i_65_3" x="282" y="172" width="232" height="229.667" filterUnits="userSpaceOnUse" color-interpolation-filters="sRGB">
<feFlood flood-opacity="0" result="BackgroundImageFix"/>
<feBlend mode="normal" in="SourceGraphic" in2="BackgroundImageFix" result="shape"/>
<feColorMatrix in="SourceAlpha" type="matrix" values="0 0 0 0 0 0 0 0 0 0 0 0 0 0 0 0 0 0 127 0" result="hardAlpha"/>
<feOffset dy="-15"/>
<feGaussianBlur stdDeviation="10"/>
<feComposite in2="hardAlpha" operator="arithmetic" k2="-1" k3="1"/>
<feColorMatrix type="matrix" values="0 0 0 0 0 0 0 0 0 0 0 0 0 0 0 0 0 0 0.2 0"/>
<feBlend mode="normal" in2="shape" result="effect1_innerShadow_65_3"/>
</filter>
<filter id="filter1_d_65_3" x="324.816" y="181.003" width="199.339" height="179.404" filterUnits="userSpaceOnUse" color-interpolation-filters="sRGB">
<feFlood flood-opacity="0" result="BackgroundImageFix"/>
<feColorMatrix in="SourceAlpha" type="matrix" values="0 0 0 0 0 0 0 0 0 0 0 0 0 0 0 0 0 0 127 0" result="hardAlpha"/>
<feOffset dy="4"/>
<feGaussianBlur stdDeviation="6"/>
<feComposite in2="hardAlpha" operator="out"/>
<feColorMatrix type="matrix" values="0 0 0 0 0 0 0 0 0 0 0 0 0 0 0 0 0 0 0.45 0"/>
<feBlend mode="normal" in2="BackgroundImageFix" result="effect1_dropShadow_65_3"/>
<feBlend mode="normal" in="SourceGraphic" in2="effect1_dropShadow_65_3" result="shape"/>
</filter>
<filter id="filter2_d_65_3" x="273.96" y="187" width="112.534" height="226.667" filterUnits="userSpaceOnUse" color-interpolation-filters="sRGB">
<feFlood flood-opacity="0" result="BackgroundImageFix"/>
<feColorMatrix in="SourceAlpha" type="matrix" values="0 0 0 0 0 0 0 0 0 0 0 0 0 0 0 0 0 0 127 0" result="hardAlpha"/>
<feOffset/>
<feGaussianBlur stdDeviation="6"/>
<feComposite in2="hardAlpha" operator="out"/>
<feColorMatrix type="matrix" values="0 0 0 0 0 0 0 0 0 0 0 0 0 0 0 0 0 0 0.45 0"/>
<feBlend mode="normal" in2="BackgroundImageFix" result="effect1_dropShadow_65_3"/>
<feBlend mode="normal" in="SourceGraphic" in2="effect1_dropShadow_65_3" result="shape"/>
</filter>
<clipPath id="clip0_65_3">
<rect width="795" height="795" rx="100" fill="white"/>
</clipPath>
</defs>
</svg>
